<svg xmlns="http://www.w3.org/2000/svg" viewBox="0 0 24 24" fill="none" stroke="currentColor" stroke-width="1.5" stroke-linecap="round" stroke-linejoin="round">
  <!-- Brain/AI symbol -->
  <path d="M12 2C8.5 2 6 4.5 6 7.5c0 1.5.6 2.8 1.5 3.8L6 13l1.5 1.5L6 16l2 2 2-2-1-1 1.5-1.5L12 15l1.5-1.5L15 15l-1 1 2 2 2-2-1.5-1.5L18 13l-1.5-1.7c.9-1 1.5-2.3 1.5-3.8C18 4.5 15.5 2 12 2z"/>
  <!-- Code brackets -->
  <path d="M9 8l-2 2 2 2"/>
  <path d="M15 8l2 2-2 2"/>
  <!-- Connection dots -->
  <circle cx="12" cy="20" r="1.5" fill="currentColor"/>
  <line x1="12" y1="15" x2="12" y2="18.5"/>
</svg>
